<svg width="32" height="32" viewBox="0 0 32 32" xmlns="http://www.w3.org/2000/svg">
  <!-- 外圆背景 -->
  <circle cx="16" cy="16" r="15" fill="#2c5aa0"/>
  
  <!-- 内部几何图形 -->
  <g transform="translate(16,16)">
    <!-- 中心六边形 -->
    <polygon points="-4,-2.31 -4,2.31 0,4.62 4,2.31 4,-2.31 0,-4.62" 
             fill="#ffffff" opacity="0.9"/>
    
    <!-- 围绕的小圆点 -->
    <circle cx="0" cy="-7" r="1" fill="#ffffff"/>
    <circle cx="6.06" cy="-3.5" r="1" fill="#ffffff"/>
    <circle cx="6.06" cy="3.5" r="1" fill="#ffffff"/>
    <circle cx="0" cy="7" r="1" fill="#ffffff"/>
    <circle cx="-6.06" cy="3.5" r="1" fill="#ffffff"/>
    <circle cx="-6.06" cy="-3.5" r="1" fill="#ffffff"/>
    
    <!-- 连接线 -->
    <line x1="0" y1="-7" x2="0" y2="-4.62" stroke="#ffffff" stroke-width="0.5" opacity="0.7"/>
    <line x1="6.06" y1="-3.5" x2="4" y2="-2.31" stroke="#ffffff" stroke-width="0.5" opacity="0.7"/>
    <line x1="6.06" y1="3.5" x2="4" y2="2.31" stroke="#ffffff" stroke-width="0.5" opacity="0.7"/>
    <line x1="0" y1="7" x2="0" y2="4.62" stroke="#ffffff" stroke-width="0.5" opacity="0.7"/>
    <line x1="-6.06" y1="3.5" x2="-4" y2="2.31" stroke="#ffffff" stroke-width="0.5" opacity="0.7"/>
    <line x1="-6.06" y1="-3.5" x2="-4" y2="-2.31" stroke="#ffffff" stroke-width="0.5" opacity="0.7"/>
  </g>
</svg>